<svg width="65" height="80" viewBox="0 0 65 80" fill="none" xmlns="http://www.w3.org/2000/svg">
<path fill-rule="evenodd" clip-rule="evenodd" d="M52.5 0C58.8907 0 64.1146 4.99568 64.4796 11.2949L64.5 12V68C64.5 74.3907 59.5043 79.6146 53.2051 79.9796L52.5 80H12.5C6.10928 80 0.885356 75.0043 0.520371 68.7051L0.5 68V12C0.5 5.60928 5.49568 0.385356 11.7949 0.0203708L12.5 0H52.5ZM44.5 52C46.7091 52 48.5 53.7909 48.5 56C48.5 58.2091 46.7091 60 44.5 60H20.5C18.2909 60 16.5 58.2091 16.5 56C16.5 53.7909 18.2909 52 20.5 52H44.5ZM44.5 36C46.7091 36 48.5 37.7909 48.5 40C48.5 42.2091 46.7091 44 44.5 44H20.5C18.2909 44 16.5 42.2091 16.5 40C16.5 37.7909 18.2909 36 20.5 36H44.5ZM44.5 20C46.7091 20 48.5 21.7909 48.5 24C48.5 26.2091 46.7091 28 44.5 28H20.5C18.2909 28 16.5 26.2091 16.5 24C16.5 21.7909 18.2909 20 20.5 20H44.5Z" fill="#CCD0D7"/>
</svg>
