<svg width="329" height="184" viewBox="0 0 329 184" fill="none" xmlns="http://www.w3.org/2000/svg">
<g clip-path="url(#clip0_758_8429)">
<rect width="329" height="184" rx="12" fill="#E1F5E7"/>
<path opacity="0.1" d="M107.659 104.8L186.438 -34.8403C189.37 -40.0366 195.669 -42.3239 201.27 -40.2254L329.231 7.72131C330.39 8.15563 331.423 8.72515 332.327 9.39986C332.504 9.50035 332.68 9.60429 332.852 9.71161C334.798 10.9157 336.487 12.5688 337.743 14.6035C338.633 16.0383 339.289 17.6327 339.657 19.3336C339.912 20.5042 340.022 21.6847 339.996 22.852V91.5994C340.001 91.8232 340.001 92.0467 339.996 92.2698V161.017C340.015 161.845 339.964 162.669 339.848 163.48C339.229 167.873 336.71 171.659 333.146 173.988C332.365 174.499 331.533 174.94 330.659 175.301L126.486 265.696C118.84 269.081 109.887 265.65 106.489 258.034C103.091 250.418 106.535 241.5 114.18 238.115L309.698 151.553V115.164L126.486 196.278C118.84 199.663 109.887 196.233 106.489 188.617C103.091 181.001 106.535 172.083 114.18 168.698L309.698 82.1357V45.7463L126.486 126.86C118.84 130.245 109.887 126.815 106.489 119.199C105.961 118.015 105.598 116.799 105.39 115.577C104.649 112.789 104.915 109.664 106.609 106.661L106.663 106.566C106.954 105.957 107.287 105.367 107.659 104.8Z" fill="#00875F"/>
<path d="M44.6406 33.2188H42.75V36.7344H41.6094V33.4844H39.75V41.6719H41.6094V38.3594H42.75V42.1406H44.6406V33.2188ZM32.3438 36.2344H39.3281V34.6875H36.8438V33.3438H34.8594V34.6875H32.3438V36.2344ZM32.7812 39.1875C32.7734 40.6641 34.0781 41.6484 35.8594 41.6562C37.6641 41.6484 38.9609 40.6641 38.9688 39.1875C38.9609 37.6953 37.6641 36.7031 35.8594 36.7031C34.0781 36.7031 32.7734 37.6953 32.7812 39.1875ZM34.5625 39.1875C34.5547 38.5234 35.0859 38.1328 35.8594 38.1406C36.6328 38.1328 37.1641 38.5234 37.1719 39.1875C37.1641 39.8438 36.6328 40.2422 35.8594 40.2344C35.0781 40.2422 34.5547 39.8438 34.5625 39.1875ZM34.8594 44.8594C34.8516 46.5 36.7188 47.4453 39.7812 47.4375C42.8516 47.4453 44.7031 46.5 44.7188 44.8594C44.7031 43.2109 42.8516 42.2734 39.7812 42.2656C36.7188 42.2734 34.8516 43.2109 34.8594 44.8594ZM36.8594 44.8594C36.8438 44.1094 37.8516 43.7578 39.7812 43.7656C41.7188 43.7578 42.7031 44.1094 42.7031 44.8594C42.7031 45.5781 41.7188 45.9375 39.7812 45.9375C37.8516 45.9375 36.8438 45.5781 36.8594 44.8594ZM59.2188 40.2656H53.7188V39.0625H57.5625V33.5625H55.5781V34.8594H49.875V33.5625H47.9062V39.0625H51.7188V40.2656H46.25V41.875H59.2188V40.2656ZM47.6875 44.4219H55.6562V47.4375H57.6406V42.8438H47.6875V44.4219ZM49.875 37.5V36.3281H55.5781V37.5H49.875ZM71.3594 33.2344H69.3594V43.8438H71.3594V39.2188H73.2812V37.5938H71.3594V33.2344ZM60.0781 36.2969H68.5156V34.7188H65.2969V33.2031H63.3125V34.7188H60.0781V36.2969ZM60.7656 39.5469C60.7656 41.1875 62.2266 42.2656 64.2969 42.2656C66.3594 42.2656 67.7969 41.1875 67.7969 39.5469C67.7969 37.8984 66.3594 36.7969 64.2969 36.7969C62.2266 36.7969 60.7656 37.8984 60.7656 39.5469ZM62.1406 47.1875H71.875V45.5938H64.125V43.0312H62.1406V47.1875ZM62.7188 39.5469C62.7109 38.7578 63.3438 38.3203 64.2969 38.3125C65.2578 38.3203 65.9062 38.7578 65.9062 39.5469C65.9062 40.3281 65.2578 40.75 64.2969 40.75C63.3438 40.75 62.7109 40.3281 62.7188 39.5469ZM88.8125 33.2188H86.8125V47.4062H88.8125V40.3125H90.8281V38.6719H88.8125V33.2188ZM77.4375 43.4219L78.5625 44.9531C83.3438 42.6016 85 38.9219 85.0156 34.6719H78.25V36.2969H82.9922C82.6172 39.4688 80.8047 41.7344 77.4375 43.4219ZM103.406 33.2188H101.422V36.6875H99.2031V38.2969H101.422V41.6562H103.406V33.2188ZM91.3281 40.0938L92.3594 41.6719C94.0469 41.0938 95.1875 39.9297 95.8125 38.4844C96.4297 39.7578 97.5156 40.7891 99.0781 41.2969L100.062 39.7344C97.8516 39 96.8359 37.3281 96.7969 35.6719H99.625V34.0781H91.9062V35.6719H94.7656C94.7188 37.4531 93.6562 39.3125 91.3281 40.0938ZM93.6562 44.7188C93.6562 46.4453 95.5156 47.4531 98.5469 47.4531C101.586 47.4531 103.445 46.4453 103.453 44.7188C103.445 42.9922 101.586 41.9766 98.5469 41.9688C95.5156 41.9766 93.6562 42.9922 93.6562 44.7188ZM95.6406 44.7188C95.6406 43.8984 96.6641 43.4922 98.5469 43.5C100.438 43.4922 101.461 43.8984 101.469 44.7188C101.461 45.5312 100.438 45.9375 98.5469 45.9375C96.6641 45.9375 95.6406 45.5312 95.6406 44.7188ZM118.219 40.4844H105.25V42.0781H118.219V40.4844ZM106.547 36.5625C106.547 38.3828 108.602 39.5 111.734 39.5C114.844 39.5 116.898 38.3828 116.906 36.5625C116.898 34.75 114.844 33.6406 111.734 33.6562C108.602 33.6406 106.547 34.75 106.547 36.5625ZM106.812 47.1875H116.75V45.5938H108.812V43.0312H106.812V47.1875ZM108.625 36.5625C108.609 35.7031 109.758 35.2344 111.734 35.2188C113.695 35.2344 114.844 35.7031 114.844 36.5625C114.844 37.4453 113.695 37.8906 111.734 37.8906C109.758 37.8906 108.609 37.4453 108.625 36.5625ZM134.672 33.2188H132.656V47.4688H134.672V33.2188ZM123.469 44.1406H130.5V34.3438H128.531V37.8125H125.469V34.3438H123.469V44.1406ZM125.469 42.5312V39.3594H128.531V42.5312H125.469ZM149.562 39.875H136.594V41.4844H149.562V39.875ZM137.25 37.5156L137.984 39.1094C140.391 38.7578 142.164 37.6953 143.078 36.2734C143.984 37.6953 145.75 38.7578 148.156 39.1094L148.922 37.5156C145.742 37.1406 144.109 35.4531 144.109 33.9375V33.4531H142.062V33.9375C142.047 35.4844 140.391 37.1406 137.25 37.5156ZM137.469 45.8438L138.172 47.375C140.5 47.0625 142.18 46.1562 143.07 44.8594C143.945 46.1562 145.625 47.0625 147.953 47.375L148.688 45.8438C145.555 45.4688 144.07 44.0078 144.078 42.5156V42.2188H142.062V42.5156C142.047 44.0078 140.562 45.4688 137.469 45.8438ZM161.703 33.2344H159.703V43.8438H161.703V39.2188H163.625V37.5938H161.703V33.2344ZM150.422 36.2969H158.859V34.7188H155.641V33.2031H153.656V34.7188H150.422V36.2969ZM151.109 39.5469C151.109 41.1875 152.57 42.2656 154.641 42.2656C156.703 42.2656 158.141 41.1875 158.141 39.5469C158.141 37.8984 156.703 36.7969 154.641 36.7969C152.57 36.7969 151.109 37.8984 151.109 39.5469ZM152.484 47.1875H162.219V45.5938H154.469V43.0312H152.484V47.1875ZM153.062 39.5469C153.055 38.7578 153.688 38.3203 154.641 38.3125C155.602 38.3203 156.25 38.7578 156.25 39.5469C156.25 40.3281 155.602 40.75 154.641 40.75C153.688 40.75 153.055 40.3281 153.062 39.5469ZM179.844 33.2188H177.828V47.4688H179.844V33.2188ZM168.359 39.2812C168.352 42.4062 169.938 44.3594 172.125 44.3594C174.266 44.3594 175.859 42.4062 175.859 39.2812C175.859 36.1797 174.266 34.2188 172.125 34.2188C169.938 34.2188 168.352 36.1797 168.359 39.2812ZM170.281 39.2812C170.273 37.1719 171.016 36.0156 172.125 36.0156C173.203 36.0156 173.93 37.1719 173.938 39.2812C173.93 41.3984 173.203 42.5547 172.125 42.5469C171.016 42.5547 170.273 41.3984 170.281 39.2812ZM194.766 41.125H181.75V42.7344H184.734V47.4375H186.781V42.7344H189.688V47.4375H191.719V42.7344H194.766V41.125ZM183.062 36.9062C183.055 38.8203 185.164 40.0391 188.219 40.0312C191.273 40.0391 193.406 38.8203 193.406 36.9062C193.406 34.9453 191.273 33.6953 188.219 33.6875C185.164 33.6953 183.055 34.9453 183.062 36.9062ZM185.109 36.9062C185.102 35.8594 186.312 35.2891 188.219 35.2812C190.141 35.2891 191.344 35.8594 191.344 36.9062C191.344 37.9062 190.141 38.4609 188.219 38.4688C186.312 38.4609 185.102 37.9062 185.109 36.9062ZM208.609 44.2188H203.062V42.0781H207.438V40.4531H199.094V38.8594H207.109V34.1406H197.078V35.7344H205.141V37.2969H197.094V42.0781H201.078V44.2188H195.594V45.8594H208.609V44.2188ZM225.328 33.2188H223.438V36.7344H222.297V33.4844H220.438V41.6719H222.297V38.3594H223.438V42.1406H225.328V33.2188ZM213.031 36.2344H220.016V34.6875H217.531V33.3438H215.547V34.6875H213.031V36.2344ZM213.469 39.1875C213.461 40.6641 214.766 41.6484 216.547 41.6562C218.352 41.6484 219.648 40.6641 219.656 39.1875C219.648 37.6953 218.352 36.7031 216.547 36.7031C214.766 36.7031 213.461 37.6953 213.469 39.1875ZM215.25 39.1875C215.242 38.5234 215.773 38.1328 216.547 38.1406C217.32 38.1328 217.852 38.5234 217.859 39.1875C217.852 39.8438 217.32 40.2422 216.547 40.2344C215.766 40.2422 215.242 39.8438 215.25 39.1875ZM215.547 44.8594C215.539 46.5 217.406 47.4453 220.469 47.4375C223.539 47.4453 225.391 46.5 225.406 44.8594C225.391 43.2109 223.539 42.2734 220.469 42.2656C217.406 42.2734 215.539 43.2109 215.547 44.8594ZM217.547 44.8594C217.531 44.1094 218.539 43.7578 220.469 43.7656C222.406 43.7578 223.391 44.1094 223.391 44.8594C223.391 45.5781 222.406 45.9375 220.469 45.9375C218.539 45.9375 217.531 45.5781 217.547 44.8594ZM239.906 40.2656H234.406V39.0625H238.25V33.5625H236.266V34.8594H230.562V33.5625H228.594V39.0625H232.406V40.2656H226.938V41.875H239.906V40.2656ZM228.375 44.4219H236.344V47.4375H238.328V42.8438H228.375V44.4219ZM230.562 37.5V36.3281H236.266V37.5H230.562ZM251.984 33.2188H250.016V47.4375H251.984V40.4219H254.078V38.7812H251.984V33.2188ZM240.688 36.9375H249.047V35.3438H245.906V33.4375H243.906V35.3438H240.688V36.9375ZM241.266 41.125C241.258 43.1094 242.805 44.5078 244.906 44.5156C246.977 44.5078 248.531 43.1094 248.531 41.125C248.531 39.1406 246.977 37.7266 244.906 37.7344C242.805 37.7266 241.258 39.1406 241.266 41.125ZM243.172 41.125C243.172 40.0312 243.898 39.3594 244.906 39.3438C245.898 39.3594 246.625 40.0312 246.625 41.125C246.625 42.2266 245.898 42.8828 244.906 42.875C243.898 42.8828 243.172 42.2266 243.172 41.125ZM260.109 37.0938V36.2188H263.078V34.5938H255.047V36.2188H258.062V37.0938C258.062 39.5 256.844 42.1328 254.484 43.1875L255.625 44.7656C257.305 43.9922 258.484 42.4297 259.125 40.5625C259.766 42.2812 260.922 43.6953 262.594 44.4062L263.672 42.8438C261.289 41.8516 260.102 39.3906 260.109 37.0938ZM264.484 47.4375H266.5V33.2188H264.484V47.4375ZM275.672 34.3906H268.844V41.2188H275.672V34.3906ZM270.484 47.1875H280.219V45.5938H272.469V42.5781H270.484V47.1875ZM270.812 39.6562V35.9844H273.703V39.6562H270.812ZM277.703 43.5938H279.703V38.9531H281.625V37.3125H279.703V33.2188H277.703V43.5938ZM285.25 44.8438H283.031L282.25 49.2969H283.906L285.25 44.8438ZM36.0469 57.4375H34.0781V62.2031H43.7344V57.4375H41.75V58.4219H36.0469V57.4375ZM32.4219 64.5469H37.8906V65.4375H33.9219V66.8906H41.8438V67.6562H33.9375V71.3438H44.1875V69.8438H35.8906V69.0312H43.8125V65.4375H39.8906V64.5469H45.3906V62.9375H32.4219V64.5469ZM36.0469 60.7188V59.8594H41.75V60.7188H36.0469ZM58.4688 57.2188H56.5781V60.7344H55.4375V57.4844H53.5781V65.6719H55.4375V62.3594H56.5781V66.1406H58.4688V57.2188ZM46.1719 60.2344H53.1562V58.6875H50.6719V57.3438H48.6875V58.6875H46.1719V60.2344ZM46.6094 63.1875C46.6016 64.6641 47.9062 65.6484 49.6875 65.6562C51.4922 65.6484 52.7891 64.6641 52.7969 63.1875C52.7891 61.6953 51.4922 60.7031 49.6875 60.7031C47.9062 60.7031 46.6016 61.6953 46.6094 63.1875ZM48.3906 63.1875C48.3828 62.5234 48.9141 62.1328 49.6875 62.1406C50.4609 62.1328 50.9922 62.5234 51 63.1875C50.9922 63.8438 50.4609 64.2422 49.6875 64.2344C48.9062 64.2422 48.3828 63.8438 48.3906 63.1875ZM48.6875 68.8594C48.6797 70.5 50.5469 71.4453 53.6094 71.4375C56.6797 71.4453 58.5312 70.5 58.5469 68.8594C58.5312 67.2109 56.6797 66.2734 53.6094 66.2656C50.5469 66.2734 48.6797 67.2109 48.6875 68.8594ZM50.6875 68.8594C50.6719 68.1094 51.6797 67.7578 53.6094 67.7656C55.5469 67.7578 56.5312 68.1094 56.5312 68.8594C56.5312 69.5781 55.5469 69.9375 53.6094 69.9375C51.6797 69.9375 50.6719 69.5781 50.6875 68.8594ZM71.3594 57.2344H69.3594V67.8438H71.3594V63.2188H73.2812V61.5938H71.3594V57.2344ZM60.0781 60.2969H68.5156V58.7188H65.2969V57.2031H63.3125V58.7188H60.0781V60.2969ZM60.7656 63.5469C60.7656 65.1875 62.2266 66.2656 64.2969 66.2656C66.3594 66.2656 67.7969 65.1875 67.7969 63.5469C67.7969 61.8984 66.3594 60.7969 64.2969 60.7969C62.2266 60.7969 60.7656 61.8984 60.7656 63.5469ZM62.1406 71.1875H71.875V69.5938H64.125V67.0312H62.1406V71.1875ZM62.7188 63.5469C62.7109 62.7578 63.3438 62.3203 64.2969 62.3125C65.2578 62.3203 65.9062 62.7578 65.9062 63.5469C65.9062 64.3281 65.2578 64.75 64.2969 64.75C63.3438 64.75 62.7109 64.3281 62.7188 63.5469ZM88.8125 57.2188H86.8125V71.4062H88.8125V64.3125H90.8281V62.6719H88.8125V57.2188ZM77.4375 67.4219L78.5625 68.9531C83.3438 66.6016 85 62.9219 85.0156 58.6719H78.25V60.2969H82.9922C82.6172 63.4688 80.8047 65.7344 77.4375 67.4219ZM103.406 57.2188H101.422V60.6875H99.2031V62.2969H101.422V65.6562H103.406V57.2188ZM91.3281 64.0938L92.3594 65.6719C94.0469 65.0938 95.1875 63.9297 95.8125 62.4844C96.4297 63.7578 97.5156 64.7891 99.0781 65.2969L100.062 63.7344C97.8516 63 96.8359 61.3281 96.7969 59.6719H99.625V58.0781H91.9062V59.6719H94.7656C94.7188 61.4531 93.6562 63.3125 91.3281 64.0938ZM93.6562 68.7188C93.6562 70.4453 95.5156 71.4531 98.5469 71.4531C101.586 71.4531 103.445 70.4453 103.453 68.7188C103.445 66.9922 101.586 65.9766 98.5469 65.9688C95.5156 65.9766 93.6562 66.9922 93.6562 68.7188ZM95.6406 68.7188C95.6406 67.8984 96.6641 67.4922 98.5469 67.5C100.438 67.4922 101.461 67.8984 101.469 68.7188C101.461 69.5312 100.438 69.9375 98.5469 69.9375C96.6641 69.9375 95.6406 69.5312 95.6406 68.7188ZM118.219 64.4844H105.25V66.0781H118.219V64.4844ZM106.547 60.5625C106.547 62.3828 108.602 63.5 111.734 63.5C114.844 63.5 116.898 62.3828 116.906 60.5625C116.898 58.75 114.844 57.6406 111.734 57.6562C108.602 57.6406 106.547 58.75 106.547 60.5625ZM106.812 71.1875H116.75V69.5938H108.812V67.0312H106.812V71.1875ZM108.625 60.5625C108.609 59.7031 109.758 59.2344 111.734 59.2188C113.695 59.2344 114.844 59.7031 114.844 60.5625C114.844 61.4453 113.695 61.8906 111.734 61.8906C109.758 61.8906 108.609 61.4453 108.625 60.5625ZM135.062 57.2188H133.172V71.4375H135.062V57.2188ZM122.469 67.2812L123.672 68.75C124.977 67.9531 125.836 66.5469 126.32 64.8906C126.805 66.4219 127.633 67.6875 128.906 68.4375L130.078 66.9688C128 65.7812 127.258 63.3906 127.266 61.0312V60.2656H129.422V58.6719H123.016V60.2656H125.344V61.0312C125.344 63.4453 124.562 65.9922 122.469 67.2812ZM128.406 63.7031H130.281V70.7812H132.156V57.4531H130.281V62.0938H128.406V63.7031ZM147.875 57.2188H145.875V65.4844H147.875V62.2031H149.797V60.5469H147.875V57.2188ZM136.391 63.9375L137.219 65.4531C141.484 64.3828 143.867 61.8125 143.875 58.0156H137.141V59.5938H141.719C141.414 61.5078 139.633 63.1172 136.391 63.9375ZM138.297 67.6406H145.875V71.4375H147.875V66.0469H138.297V67.6406ZM161.703 57.2188H159.703V65.4844H161.703V62.2031H163.625V60.5469H161.703V57.2188ZM150.219 63.9375L151.047 65.4531C155.312 64.3828 157.695 61.8125 157.703 58.0156H150.969V59.5938H155.547C155.242 61.5078 153.461 63.1172 150.219 63.9375ZM152.125 67.6406H159.703V71.4375H161.703V66.0469H152.125V67.6406ZM171.562 57.4375H169.594V62.2031H179.25V57.4375H177.266V58.4219H171.562V57.4375ZM167.938 64.5469H173.406V65.4375H169.438V66.8906H177.359V67.6562H169.453V71.3438H179.703V69.8438H171.406V69.0312H179.328V65.4375H175.406V64.5469H180.906V62.9375H167.938V64.5469ZM171.562 60.7188V59.8594H177.266V60.7188H171.562ZM193.984 57.2188H192.094V60.7344H190.953V57.4844H189.094V65.6719H190.953V62.3594H192.094V66.1406H193.984V57.2188ZM181.688 60.2344H188.672V58.6875H186.188V57.3438H184.203V58.6875H181.688V60.2344ZM182.125 63.1875C182.117 64.6641 183.422 65.6484 185.203 65.6562C187.008 65.6484 188.305 64.6641 188.312 63.1875C188.305 61.6953 187.008 60.7031 185.203 60.7031C183.422 60.7031 182.117 61.6953 182.125 63.1875ZM183.906 63.1875C183.898 62.5234 184.43 62.1328 185.203 62.1406C185.977 62.1328 186.508 62.5234 186.516 63.1875C186.508 63.8438 185.977 64.2422 185.203 64.2344C184.422 64.2422 183.898 63.8438 183.906 63.1875ZM184.203 68.8594C184.195 70.5 186.062 71.4453 189.125 71.4375C192.195 71.4453 194.047 70.5 194.062 68.8594C194.047 67.2109 192.195 66.2734 189.125 66.2656C186.062 66.2734 184.195 67.2109 184.203 68.8594ZM186.203 68.8594C186.188 68.1094 187.195 67.7578 189.125 67.7656C191.062 67.7578 192.047 68.1094 192.047 68.8594C192.047 69.5781 191.062 69.9375 189.125 69.9375C187.195 69.9375 186.188 69.5781 186.203 68.8594ZM206.812 57.2188H204.844V71.4375H206.812V64.4219H208.906V62.7812H206.812V57.2188ZM195.516 60.9375H203.875V59.3438H200.734V57.4375H198.734V59.3438H195.516V60.9375ZM196.094 65.125C196.086 67.1094 197.633 68.5078 199.734 68.5156C201.805 68.5078 203.359 67.1094 203.359 65.125C203.359 63.1406 201.805 61.7266 199.734 61.7344C197.633 61.7266 196.086 63.1406 196.094 65.125ZM198 65.125C198 64.0312 198.727 63.3594 199.734 63.3438C200.727 63.3594 201.453 64.0312 201.453 65.125C201.453 66.2266 200.727 66.8828 199.734 66.875C198.727 66.8828 198 66.2266 198 65.125ZM220.641 57.2188H218.641V71.4688H220.641V64.125H222.734V62.5H220.641V57.2188ZM209.984 68.0156H211.188C213.695 68.0234 215.633 67.9688 217.844 67.5938L217.625 65.9219C215.734 66.25 214.031 66.3594 211.969 66.375V60.1406H216.656V58.5312H209.984V68.0156Z" fill="#00875F"/>
<path opacity="0.4" d="M41.9941 116.953H40.9277V125.922H41.9941V121.561H43.8262V120.658H41.9941V116.953ZM32.7246 120.809C32.7178 122.565 34.0986 123.803 35.9102 123.803C37.7354 123.803 39.0957 122.565 39.1094 120.809C39.0957 119.045 37.7354 117.821 35.9102 117.814C34.0986 117.821 32.7178 119.045 32.7246 120.809ZM33.7773 120.809C33.7705 119.605 34.707 118.758 35.9102 118.758C37.1338 118.758 38.0498 119.605 38.0566 120.809C38.0498 122.005 37.1338 122.859 35.9102 122.859C34.707 122.859 33.7705 122.005 33.7773 120.809ZM34.3926 128.848H42.5547V127.945H35.4453V124.992H34.3926V128.848ZM55.9668 121.807H53.998V116.953H52.9316V129.107H53.998V122.709H55.9668V121.807ZM45.0977 126.018H46.0684C47.9072 126.018 49.7939 125.895 51.8926 125.471L51.7559 124.555C49.7529 124.979 47.9414 125.115 46.1641 125.115V118.156H45.0977V126.018ZM66.5078 118.225H60.998V119.113H65.4414C65.3936 119.858 65.2705 120.576 65.0518 121.26L60.3828 121.574L60.5605 122.518L64.7236 122.121C63.9854 123.755 62.6113 125.163 60.3281 126.277L60.9297 127.098C65.3047 124.944 66.501 121.731 66.5078 118.225ZM68.5449 129.107H69.6113V122.805H71.5801V121.902H69.6113V116.953H68.5449V129.107ZM77.0488 118.307H72.6875V119.195H76.0234V121.615H72.7148V126.113H73.5215C75.0596 126.106 76.4541 126.065 78.1836 125.758L78.1016 124.869C76.4814 125.156 75.1553 125.197 73.7539 125.211V122.504H77.0488V118.307ZM77.6367 122.217H79.1953V128.465H80.207V117.254H79.1953V121.342H77.6367V122.217ZM81.6699 129.107H82.6953V116.953H81.6699V129.107ZM94.4258 116.953H93.3594V129.107H94.4258V116.953ZM85.1973 125.977H86.1816C88.1299 125.977 90.0508 125.826 92.2109 125.375L92.0605 124.459C90.0234 124.89 88.1094 125.033 86.25 125.047V118.156H85.1973V125.977ZM107.879 121.807H105.91V116.953H104.844V129.107H105.91V122.709H107.879V121.807ZM97.0098 126.018H97.9805C99.8193 126.018 101.706 125.895 103.805 125.471L103.668 124.555C101.665 124.979 99.8535 125.115 98.0762 125.115V118.156H97.0098V126.018ZM110.6 127.084H109.273L108.521 130.803H109.533L110.6 127.084Z" fill="#00875F"/>
<path opacity="0.4" d="M42.2539 142.781H35.0352V141.729H41.8574V140.963H35.0352V139.992H42.1855V139.199H33.9551V143.561H37.4824V144.668H32.5059V145.488H43.5664V144.668H38.5488V143.561H42.2539V142.781ZM33.832 147.156H41.0918V148.223H33.8594V150.971H42.5137V150.164H34.9258V148.988H42.1445V146.363H33.832V147.156ZM50.6484 140.744V139.814H49.5273V140.744C49.5205 142.836 47.1621 144.675 45.0566 145.078L45.5488 145.98C47.3877 145.55 49.3086 144.251 50.1016 142.467C50.8877 144.251 52.8154 145.557 54.6543 145.98L55.1465 145.078C53.0342 144.682 50.6553 142.829 50.6484 140.744ZM44.5918 149.453H55.7207V148.564H44.5918V149.453ZM66.5352 145.283H59.2207V143.451H66.1387V142.576H59.2207V140.84H66.3984V139.951H58.127V146.158H61.6953V148.701H56.6914V149.59H67.8203V148.701H62.7617V146.158H66.5352V145.283ZM78.8125 138.953H77.7324V151.135H78.8125V138.953ZM69.2422 144.135C69.249 146.726 70.5342 148.366 72.3457 148.359C74.1504 148.366 75.4561 146.726 75.4492 144.135C75.4561 141.551 74.1504 139.903 72.3457 139.896C70.5342 139.903 69.249 141.551 69.2422 144.135ZM70.2812 144.135C70.2812 142.159 71.1289 140.86 72.3457 140.854C73.5693 140.86 74.4102 142.159 74.4102 144.135C74.4102 146.11 73.5693 147.409 72.3457 147.402C71.1289 147.409 70.2812 146.11 70.2812 144.135Z" fill="#00875F"/>
</g>
<defs>
<clipPath id="clip0_758_8429">
<rect width="329" height="184" rx="12" fill="white"/>
</clipPath>
</defs>
</svg>
