<svg width="329" height="184" viewBox="0 0 329 184" fill="none" xmlns="http://www.w3.org/2000/svg">
<g clip-path="url(#clip0_752_9726)">
<rect width="329" height="184" rx="12" fill="#E1F5E7"/>
<path opacity="0.1" d="M107.659 104.8L186.438 -34.8403C189.37 -40.0366 195.669 -42.3239 201.27 -40.2254L329.231 7.72131C330.39 8.15563 331.423 8.72515 332.327 9.39986C332.504 9.50035 332.68 9.60429 332.852 9.71161C334.798 10.9157 336.487 12.5688 337.743 14.6035C338.633 16.0383 339.289 17.6327 339.657 19.3336C339.912 20.5042 340.022 21.6847 339.996 22.852V91.5994C340.001 91.8232 340.001 92.0467 339.996 92.2698V161.017C340.015 161.845 339.964 162.669 339.848 163.48C339.229 167.873 336.71 171.659 333.146 173.988C332.365 174.499 331.533 174.94 330.659 175.301L126.486 265.696C118.84 269.081 109.887 265.65 106.489 258.034C103.091 250.418 106.535 241.5 114.18 238.115L309.698 151.553V115.164L126.486 196.278C118.84 199.663 109.887 196.233 106.489 188.617C103.091 181.001 106.535 172.083 114.18 168.698L309.698 82.1357V45.7463L126.486 126.86C118.84 130.245 109.887 126.815 106.489 119.199C105.961 118.015 105.598 116.799 105.39 115.577C104.649 112.789 104.915 109.664 106.609 106.661L106.663 106.566C106.954 105.957 107.287 105.367 107.659 104.8Z" fill="#00875F"/>
<path d="M48.0059 41.4258H45.2559V60.9766H48.0059V51.0293H50.8848V48.7305H48.0059V41.4258ZM33.2031 56.4434H42.7207V42.9727H39.9922V47.7422H35.9316V42.9727H33.2031V56.4434ZM35.9316 54.2305V49.8691H39.9922V54.2305H35.9316ZM67.0195 41.4258H64.2695V61.0195H67.0195V50.9219H69.8984V48.6875H67.0195V41.4258ZM52.3672 56.2715H54.0215C57.4697 56.2822 60.1338 56.207 63.1738 55.6914L62.873 53.3926C60.2734 53.8438 57.9316 53.9941 55.0957 54.0156V45.4434H61.541V43.2305H52.3672V56.2715ZM86.4844 46.7539H75.5488V42.1133H72.8203V48.9023H86.4844V46.7539ZM70.5859 53.1562H88.4824V51.0078H70.5859V53.1562ZM72.6484 60.5469H86.6133V58.3555H75.3984V54.7461H72.6484V60.5469ZM111.062 41.4258H108.291V61.0195H111.062V41.4258ZM95.6582 56.4434H105.326V42.9727H102.619V47.7422H98.4082V42.9727H95.6582V56.4434ZM98.4082 54.2305V49.8691H102.619V54.2305H98.4082ZM130.656 41.4258H128.035V60.9766H130.656V41.4258ZM113.877 49.8906C113.877 54.2842 115.542 57.002 118.131 57.002C120.537 57.002 122.181 54.6709 122.417 50.8359H123.996V60.0742H126.574V41.7051H123.996V48.666H122.396C122.095 45.0137 120.483 42.8115 118.131 42.8223C115.542 42.8115 113.877 45.5186 113.877 49.8906ZM116.412 49.8906C116.391 46.8936 117.035 45.4004 118.131 45.4004C119.259 45.4004 119.925 46.8936 119.914 49.8906C119.925 52.8984 119.259 54.3809 118.131 54.3594C117.035 54.3809 116.391 52.8984 116.412 49.8906ZM154.268 41.4258H151.539V45.8945H148.445V48.1074H151.539V52.5117H154.268V41.4258ZM137.682 50.4062L139.078 52.6191C141.388 51.8672 142.945 50.2988 143.815 48.3438C144.664 50.0947 146.157 51.502 148.316 52.1895L149.67 50.0625C146.694 49.1064 145.287 46.8184 145.19 44.627H149.068V42.4141H138.455V44.627H142.376C142.258 47.0332 140.786 49.4287 137.682 50.4062ZM140.41 58.8496L141.334 60.9336C144.492 60.5469 146.705 59.3652 147.833 57.7324C148.961 59.3545 151.163 60.5469 154.311 60.9336L155.256 58.8496C151.668 58.4414 149.745 57.002 149.369 55.541H154.482V53.3496H141.248V55.541H146.297C145.921 57.0557 143.998 58.4844 140.41 58.8496ZM164.387 46.7539V45.5508H168.469V43.3164H157.426V45.5508H161.572V46.7539C161.572 50.0625 159.896 53.6826 156.652 55.1328L158.221 57.3027C160.53 56.2393 162.152 54.0908 163.033 51.5234C163.914 53.8867 165.504 55.8311 167.803 56.8086L169.285 54.6602C166.009 53.2959 164.376 49.9121 164.387 46.7539ZM170.402 60.9766H173.174V41.4258H170.402V60.9766ZM186.279 42.3711C183.293 42.3604 181.005 44.2725 181.016 46.9258C181.005 49.6006 183.293 51.502 186.279 51.502C189.287 51.502 191.521 49.6006 191.521 46.9258C191.521 44.2725 189.287 42.3604 186.279 42.3711ZM182.648 60.4609H183.723C185.592 60.4609 187.171 60.3857 188.814 59.7949L188.428 57.668C187.418 57.9902 186.397 58.1514 185.312 58.2266V52.9629H182.648V60.4609ZM183.701 46.9258C183.68 45.4971 184.797 44.6162 186.279 44.627C187.762 44.6162 188.857 45.4971 188.857 46.9258C188.857 48.3652 187.762 49.2568 186.279 49.2676C184.797 49.2568 183.68 48.3652 183.701 46.9258ZM188.148 55.0039H197.988V52.9844H194.422V51.6094H191.758V52.9844H188.148V55.0039ZM189.287 58.2266C189.266 59.9238 190.791 60.9873 193.047 60.9766C195.281 60.9873 196.839 59.9238 196.85 58.2266C196.839 56.54 195.281 55.4551 193.047 55.4551C190.802 55.4551 189.266 56.54 189.287 58.2266ZM191.715 58.2266C191.704 57.668 192.273 57.3564 193.047 57.3457C193.831 57.3564 194.39 57.668 194.4 58.2266C194.39 58.8174 193.831 59.1074 193.047 59.1074C192.273 59.1074 191.704 58.8174 191.715 58.2266ZM193.648 51.0723H196.398V47.7422H199.041V45.4863H196.398V41.4258H193.648V51.0723ZM215.777 46.7539H204.842V42.1133H202.113V48.9023H215.777V46.7539ZM199.879 53.1562H217.775V51.0078H199.879V53.1562ZM201.941 60.5469H215.906V58.3555H204.691V54.7461H201.941V60.5469ZM234.34 41.4258H231.59V61.0195H234.34V50.9219H237.219V48.6875H234.34V41.4258ZM219.688 56.2715H221.342C224.79 56.2822 227.454 56.207 230.494 55.6914L230.193 53.3926C227.594 53.8438 225.252 53.9941 222.416 54.0156V45.4434H228.861V43.2305H219.688V56.2715Z" fill="#00875F"/>
<path opacity="0.4" d="M42.3359 122.49H34.9531V117.992H33.8594V123.393H37.4961V126.633H32.4922V127.521H43.6211V126.633H38.5625V123.393H42.3359V122.49ZM54.627 116.967H53.5605V125.854H54.627V116.967ZM44.8789 120.795C44.8721 122.565 46.2461 123.796 48.0645 123.789C49.8828 123.796 51.2432 122.565 51.25 120.795C51.2432 119.045 49.8828 117.821 48.0645 117.814C46.2461 117.821 44.8721 119.045 44.8789 120.795ZM45.9316 120.795C45.918 119.605 46.834 118.758 48.0645 118.758C49.2744 118.758 50.1973 119.605 50.1973 120.795C50.1973 122.005 49.2744 122.846 48.0645 122.846C46.834 122.846 45.918 122.005 45.9316 120.795ZM46.7793 128.848H55.0098V127.945H47.8457V124.951H46.7793V128.848ZM63.4316 118.307H57.252V119.182H62.3516C62.3584 120.152 62.3311 121.629 61.9961 123.666L63.0762 123.762C63.4248 121.506 63.4248 119.899 63.4316 118.936V118.307ZM56.5684 125.539L56.7051 126.428C58.8789 126.441 61.7363 126.387 64.293 125.99L64.2383 125.184C62.9736 125.334 61.5928 125.423 60.2461 125.471V121.779H59.1934V125.505C58.2568 125.525 57.3682 125.532 56.5684 125.539ZM65.0039 129.107H66.0703V122.969H68.0391V122.039H66.0703V116.953H65.0039V129.107ZM81.7109 116.953H80.6445V129.107H81.7109V122.668H83.748V121.738H81.7109V116.953ZM72.8105 126.195H78.498V117.992H77.4316V121.205H73.877V117.992H72.8105V126.195ZM73.877 125.293V122.066H77.4316V125.293H73.877ZM93.8105 116.953H92.7441V129.135H93.8105V122.668H95.8477V121.766H93.8105V116.953ZM84.9375 126.086H85.8945C88.2051 126.086 89.7979 126.018 91.7051 125.676L91.5684 124.746C89.7568 125.081 88.2051 125.177 86.0039 125.184V119.031H90.6113V118.143H84.9375V126.086ZM98.5 127.084H97.1738L96.4219 130.803H97.4336L98.5 127.084Z" fill="#00875F"/>
<path opacity="0.4" d="M42.9102 138.953H41.8711V151.107H42.9102V138.953ZM32.4648 141.934H38.5215V141.059H36.0332V139.281H34.9531V141.059H32.4648V141.934ZM32.916 145.529C32.9092 147.17 33.9893 148.305 35.4727 148.318C36.9697 148.305 38.043 147.17 38.043 145.529C38.043 143.909 36.9697 142.768 35.4727 142.768C33.9893 142.768 32.9092 143.909 32.916 145.529ZM33.8594 145.529C33.8594 144.463 34.5361 143.677 35.4727 143.684C36.416 143.677 37.0928 144.463 37.0996 145.529C37.0928 146.616 36.416 147.402 35.4727 147.389C34.5361 147.402 33.8594 146.616 33.8594 145.529ZM38.166 144.572H39.5742V150.506H40.5859V139.227H39.5742V143.67H38.166V144.572ZM50.9355 139.855H45.2344V145.146H50.9355V139.855ZM46.2871 144.271V140.73H49.8828V144.271H46.2871ZM46.4785 148.756C46.4785 150.232 48.0439 151.08 50.5938 151.08C53.1094 151.08 54.6885 150.232 54.6816 148.756C54.6885 147.293 53.1094 146.445 50.5938 146.445C48.0439 146.445 46.4785 147.293 46.4785 148.756ZM47.5449 148.756C47.5518 147.833 48.7002 147.293 50.5938 147.293C52.4531 147.293 53.6221 147.833 53.6289 148.756C53.6221 149.672 52.4531 150.226 50.5938 150.219C48.7002 150.226 47.5518 149.672 47.5449 148.756ZM53.5605 146.24H54.627V138.967H53.5605V146.24ZM59.7812 139.732C58.2363 139.739 57.1152 140.648 57.1289 141.988C57.1152 143.321 58.2363 144.23 59.7812 144.217C61.3262 144.23 62.4336 143.321 62.4473 141.988C62.4336 140.648 61.3262 139.739 59.7812 139.732ZM56.5273 145.16L56.6777 146.076C57.3887 146.076 58.2773 146.069 59.2207 146.035V150.109H60.2324V145.98C61.1758 145.926 62.1328 145.823 62.9941 145.652L62.9121 144.832C60.9297 145.153 58.209 145.167 56.5273 145.16ZM58.0996 141.988C58.0928 141.154 58.79 140.553 59.7812 140.566C60.7725 140.553 61.4766 141.154 61.4766 141.988C61.4766 142.815 60.7725 143.403 59.7812 143.41C58.79 143.403 58.0928 142.815 58.0996 141.988ZM61.3945 147.771H63.7051V150.465H64.7168V139.227H63.7051V146.924H61.3945V147.771ZM66.0156 151.107H67.041V138.953H66.0156V151.107ZM78.8125 138.953H77.7324V151.135H78.8125V138.953ZM69.2422 144.135C69.249 146.726 70.5342 148.366 72.3457 148.359C74.1504 148.366 75.4561 146.726 75.4492 144.135C75.4561 141.551 74.1504 139.903 72.3457 139.896C70.5342 139.903 69.249 141.551 69.2422 144.135ZM70.2812 144.135C70.2812 142.159 71.1289 140.86 72.3457 140.854C73.5693 140.86 74.4102 142.159 74.4102 144.135C74.4102 146.11 73.5693 147.409 72.3457 147.402C71.1289 147.409 70.2812 146.11 70.2812 144.135Z" fill="#00875F"/>
</g>
<defs>
<clipPath id="clip0_752_9726">
<rect width="329" height="184" rx="12" fill="white"/>
</clipPath>
</defs>
</svg>
