<svg width="20" height="20" viewBox="0 0 20 20" fill="none" xmlns="http://www.w3.org/2000/svg">
<path fill-rule="evenodd" clip-rule="evenodd" d="M11.6667 1.66667C12.9981 1.66667 14.0864 2.70744 14.1624 4.01978L14.1667 4.16667V5.00001H16.6667C17.1269 5.00001 17.5 5.3731 17.5 5.83334C17.5 6.29358 17.1269 6.66667 16.6667 6.66667H15.8333V15.8333C15.8333 17.1647 14.7926 18.2531 13.4802 18.3291L13.3333 18.3333H6.66667C5.33527 18.3333 4.24695 17.2926 4.17091 15.9802L4.16667 15.8333V6.66667H3.33333C2.8731 6.66667 2.5 6.29358 2.5 5.83334C2.5 5.3731 2.8731 5.00001 3.33333 5.00001H5.83333V4.16667C5.83333 2.83527 6.8741 1.74695 8.18644 1.67092L8.33333 1.66667H11.6667ZM14.1667 6.66667H5.83333V15.8333C5.83333 16.2278 6.10744 16.5583 6.47559 16.6447L6.56948 16.6611L6.66667 16.6667H13.3333C13.7607 16.6667 14.1129 16.345 14.1611 15.9305L14.1667 15.8333V6.66667ZM8.33333 8.33334C8.79357 8.33334 9.16667 8.70643 9.16667 9.16667V14.1667C9.16667 14.6269 8.79357 15 8.33333 15C7.8731 15 7.5 14.6269 7.5 14.1667V9.16667C7.5 8.70643 7.8731 8.33334 8.33333 8.33334ZM11.6667 8.33334C12.1269 8.33334 12.5 8.70643 12.5 9.16667V14.1667C12.5 14.6269 12.1269 15 11.6667 15C11.2064 15 10.8333 14.6269 10.8333 14.1667V9.16667C10.8333 8.70643 11.2064 8.33334 11.6667 8.33334ZM11.6667 3.33334H8.33333C7.90597 3.33334 7.55374 3.65504 7.50561 4.06949L7.5 4.16667V5.00001H12.5V4.16667C12.5 3.73931 12.1783 3.38708 11.7639 3.33894L11.6667 3.33334Z" fill="#CF3644"/>
</svg>
