<svg width="20" height="20" viewBox="0 0 20 20" fill="none" xmlns="http://www.w3.org/2000/svg">
<path fill-rule="evenodd" clip-rule="evenodd" d="M11.5656 2.25591C12.5029 1.31866 13.9992 1.28117 14.9812 2.14344L15.1012 2.25591L17.7442 4.89889C18.6814 5.83615 18.7189 7.33245 17.8566 8.31443L17.7442 8.43443L8.57749 17.6011C8.14772 18.0309 7.57759 18.288 6.97484 18.3279L6.80973 18.3333H4.16675C2.83535 18.3333 1.74703 17.2926 1.67099 15.9802L1.66675 15.8333V13.1903C1.66675 12.5826 1.88807 11.9976 2.28608 11.5432L2.39898 11.4226L11.5656 2.25591ZM4.58258 11.5945L3.57749 12.6011C3.44726 12.7313 3.36458 12.9002 3.34064 13.0808L3.33341 13.1903V15.8333C3.33341 16.2607 3.65512 16.6129 4.06956 16.6611L4.16675 16.6667H6.80973C6.9939 16.6667 7.1718 16.6057 7.31642 16.4949L7.39898 16.4226L8.40425 15.4162L4.58258 11.5945ZM13.9227 3.43443C13.6223 3.13402 13.1496 3.11091 12.8227 3.3651L12.7442 3.43443L5.76175 10.4162L9.58342 14.2378L16.5656 7.25591C16.8661 6.95551 16.8892 6.48282 16.635 6.15591L16.5656 6.0774L13.9227 3.43443Z" fill="#3D4350"/>
</svg>
