<svg width="18" height="14" viewBox="0 0 18 14" fill="none" xmlns="http://www.w3.org/2000/svg">
<path fill-rule="evenodd" clip-rule="evenodd" d="M14.8333 0.333344C16.1647 0.333344 17.253 1.37411 17.3291 2.68645L17.3333 2.83334V11.1667C17.3333 12.4981 16.2926 13.5864 14.9802 13.6624L14.8333 13.6667H3.16666C1.83526 13.6667 0.746947 12.6259 0.670908 11.3136L0.666664 11.1667V2.83334C0.666664 1.50194 1.70743 0.413626 3.01977 0.337587L3.16666 0.333344H14.8333ZM15.6667 5.65584L9.79057 7.6149C9.33442 7.76695 8.84537 7.78384 8.38191 7.66558L8.20943 7.6149L2.33333 5.65584V11.1667C2.33333 11.594 2.65503 11.9463 3.06948 11.9944L3.16666 12H14.8333C15.2607 12 15.6129 11.6783 15.6611 11.2639L15.6667 11.1667V5.65584ZM14.8333 2.00001H3.16666C2.7393 2.00001 2.38707 2.32171 2.33894 2.73616L2.33333 2.83334V3.89918L8.73647 6.03376C8.87332 6.07937 9.01905 6.0885 9.15944 6.06113L9.26352 6.03376L15.6667 3.89918V2.83334C15.6667 2.40598 15.345 2.05375 14.9305 2.00562L14.8333 2.00001Z" fill="#476BDB"/>
</svg>
