<svg width="18" height="18" viewBox="0 0 18 18" fill="none" xmlns="http://www.w3.org/2000/svg">
<path fill-rule="evenodd" clip-rule="evenodd" d="M7.33333 7.33333C8.71404 7.33333 9.83333 6.21405 9.83333 4.83333C9.83333 3.45262 8.71404 2.33333 7.33333 2.33333C5.95262 2.33333 4.83333 3.45262 4.83333 4.83333C4.83333 6.21405 5.95262 7.33333 7.33333 7.33333ZM7.33333 9C9.63452 9 11.5 7.13452 11.5 4.83333C11.5 2.53215 9.63452 0.666668 7.33333 0.666668C5.03214 0.666668 3.16666 2.53215 3.16666 4.83333C3.16666 7.13452 5.03214 9 7.33333 9ZM2.33333 17.3333C1.41286 17.3333 0.645261 16.5758 0.872322 15.6837C0.873772 15.6781 0.875229 15.6724 0.876693 15.6667C1.61676 12.7913 4.22693 10.6667 7.33333 10.6667C10.4397 10.6667 13.0499 12.7913 13.79 15.6667C13.7914 15.6724 13.7929 15.6781 13.7943 15.6837C14.0214 16.5758 13.2538 17.3333 12.3333 17.3333V17.3333H2.33333V17.3333ZM12.0488 15.6667C11.3624 13.7247 9.51036 12.3333 7.33333 12.3333C5.1563 12.3333 3.30423 13.7247 2.61784 15.6667H12.0488ZM14 7.33334C14 6.8731 14.3731 6.5 14.8333 6.5V6.5C15.2936 6.5 15.6667 6.8731 15.6667 7.33333V8.16667H16.5C16.9602 8.16667 17.3333 8.53976 17.3333 9V9C17.3333 9.46024 16.9602 9.83334 16.5 9.83334H15.6667V10.6667C15.6667 11.1269 15.2936 11.5 14.8333 11.5V11.5C14.3731 11.5 14 11.1269 14 10.6667V9.83334H13.1667C12.7064 9.83334 12.3333 9.46024 12.3333 9V9C12.3333 8.53976 12.7064 8.16667 13.1667 8.16667H14V7.33334Z" fill="#3D4350"/>
</svg>
