<svg width="20" height="16" viewBox="0 0 20 16" fill="none" xmlns="http://www.w3.org/2000/svg">
<path fill-rule="evenodd" clip-rule="evenodd" d="M10 1.3424C9.13818 0.483118 7.96909 0 6.75 0H0.909091C0.667985 0 0.436754 0.0954967 0.266266 0.265482C0.0957789 0.435467 0 0.666016 0 0.906411V13.7521C0 13.9925 0.0957789 14.223 0.266266 14.393C0.436754 14.563 0.667985 14.6585 0.909091 14.6585H6.75C7.35353 14.6584 7.95118 14.7768 8.50882 15.0069C9.06643 15.2371 9.57311 15.5745 9.99993 15.9999C10.4267 15.5745 10.9336 15.2371 11.4912 15.0069C12.0488 14.7768 12.6465 14.6584 13.25 14.6585H19.0909C19.332 14.6585 19.5632 14.563 19.7337 14.393C19.9042 14.223 20 13.9925 20 13.7521V0.906411C20 0.666016 19.9042 0.435467 19.7337 0.265482C19.5632 0.0954967 19.332 0 19.0909 0H13.25C12.031 6.34193e-05 10.8619 0.482936 10 1.3424ZM8.58787 2.75869L9 3.16961V13.053C8.27932 12.7921 7.51793 12.6584 6.75 12.6585H2V2H6.75C7.4403 2 8.1014 2.27365 8.58787 2.75869Z" fill="#17171B"/>
</svg>
