<svg width="225" height="225" viewBox="0 0 225 225" fill="none" xmlns="http://www.w3.org/2000/svg">
<rect width="225" height="225" fill="white"/>
<path d="M75.1466 73.3077L101.148 27.0409C102.115 25.3192 104.195 24.5614 106.043 25.2567L148.277 41.1427C148.659 41.2866 149 41.4753 149.298 41.6989C149.357 41.7322 149.415 41.7666 149.472 41.8022C150.114 42.2011 150.672 42.7488 151.086 43.423C151.38 43.8983 151.596 44.4266 151.718 44.9902C151.802 45.378 151.838 45.7692 151.83 46.1559V68.9338C151.831 69.008 151.831 69.082 151.83 69.1559V91.9338C151.836 92.2081 151.819 92.481 151.781 92.7498C151.576 94.2053 150.745 95.4598 149.569 96.2315C149.311 96.4007 149.036 96.5468 148.748 96.6666L81.3604 126.617C78.837 127.738 75.8822 126.602 74.7606 124.078C73.6391 121.555 74.7756 118.6 77.299 117.479L141.83 88.7983V76.7414L81.3604 103.617C78.837 104.738 75.8822 103.602 74.7606 101.078C73.6391 98.5549 74.7756 95.6001 77.299 94.4786L141.83 65.7983V53.7414L81.3604 80.6167C78.837 81.7382 75.8822 80.6017 74.7606 78.0783C74.5862 77.6859 74.4664 77.283 74.3979 76.8782C74.1532 75.9544 74.2409 74.9191 74.8001 73.9241L74.8179 73.8925C74.9141 73.6909 75.0239 73.4954 75.1466 73.3077Z" fill="#00875F"/>
<path d="M88.1523 170.561C88.1523 171.801 89.158 172.807 90.3984 172.807C91.6389 172.807 92.6445 171.801 92.6445 170.561V153.295C92.6445 152.054 91.6389 151.049 90.3984 151.049C89.158 151.049 88.1523 152.054 88.1523 153.295V160.326H85.2812V153.871C85.2812 152.668 84.3062 151.693 83.1035 151.693C81.9008 151.693 80.9258 152.668 80.9258 153.871V170.316C80.9258 171.519 81.9008 172.494 83.1035 172.494C84.3062 172.494 85.2812 171.519 85.2812 170.316V164.057H88.1523V170.561ZM64.4578 168.443C63.2879 169.185 62.8313 170.772 63.6714 171.873C64.2419 172.621 65.2508 172.912 66.071 172.451C68.5491 171.059 70.5429 168.837 71.3164 166.615C72.1159 168.606 74.1361 170.459 76.0638 171.527C76.8518 171.963 77.8093 171.643 78.2986 170.886C79.0186 169.773 78.4898 168.26 77.3755 167.541C75.3258 166.221 74.0034 164.266 73.6406 161.654H77.127C78.1355 161.654 78.9531 160.837 78.9531 159.828C78.9531 158.82 78.1355 158.002 77.127 158.002H65.1152C64.1067 158.002 63.2891 158.82 63.2891 159.828C63.2891 160.837 64.1067 161.654 65.1152 161.654H68.875C68.4777 164.527 67.0646 166.79 64.4578 168.443ZM66.6094 154.213C66.6094 155.227 67.4314 156.049 68.4453 156.049H74.0117C75.0257 156.049 75.8477 155.227 75.8477 154.213C75.8477 153.199 75.0257 152.377 74.0117 152.377H68.4453C67.4314 152.377 66.6094 153.199 66.6094 154.213ZM67.8789 176.312C67.8789 177.343 68.714 178.178 69.7441 178.178H87.957V184.389C87.957 185.683 89.0064 186.732 90.3008 186.732C91.5952 186.732 92.6445 185.683 92.6445 184.389V176.202C92.6445 175.233 91.8588 174.447 90.8895 174.447H69.7441C68.714 174.447 67.8789 175.282 67.8789 176.312Z" fill="#00875F"/>
<path d="M126.349 170.486C127.116 169.304 126.405 167.694 125.071 167.242C120.525 165.704 115.816 162.218 115.335 157.455H124.329C125.349 157.455 126.175 156.629 126.175 155.609C126.175 154.59 125.349 153.764 124.329 153.764H101.341C100.322 153.764 99.4953 154.59 99.4953 155.609C99.4953 156.629 100.322 157.455 101.341 157.455H110.335C109.865 162.306 105.338 165.715 100.616 167.189C99.2687 167.61 98.5169 169.179 99.2295 170.398C99.6669 171.146 100.541 171.532 101.372 171.287C105.939 169.942 111.154 166.918 112.816 162.533C114.667 166.823 119.746 169.896 124.299 171.265C125.08 171.499 125.904 171.169 126.349 170.486ZM96.7219 180.385C96.7219 181.388 97.5351 182.201 98.5383 182.201H127.113C128.116 182.201 128.929 181.388 128.929 180.385C128.929 179.382 128.116 178.568 127.113 178.568H115.081V172.953C115.081 171.653 114.028 170.6 112.728 170.6C111.428 170.6 110.374 171.653 110.374 172.953V178.568H98.5383C97.5351 178.568 96.7219 179.382 96.7219 180.385Z" fill="#00875F"/>
<path d="M159.022 163.334H162.176C163.239 163.334 164.1 162.473 164.1 161.41C164.1 160.348 163.239 159.486 162.176 159.486H159.022V153.412C159.022 152.107 157.964 151.049 156.659 151.049C155.353 151.049 154.295 152.107 154.295 153.412V169.604C154.295 170.909 155.353 171.967 156.659 171.967C157.964 171.967 159.022 170.909 159.022 169.604V163.334ZM133.542 167.237C132.223 167.678 131.539 169.24 132.277 170.418C132.725 171.134 133.582 171.491 134.393 171.258C142.371 168.966 147.871 163.624 148.892 155.616C149.059 154.305 147.978 153.217 146.657 153.217H134.373C133.316 153.217 132.459 154.074 132.459 155.131C132.459 156.188 133.316 157.045 134.373 157.045H143.905C143.035 162.082 138.431 165.602 133.542 167.237ZM135.545 175.473C135.545 176.503 136.38 177.338 137.411 177.338H154.334V184.369C154.334 185.674 155.392 186.732 156.698 186.732C158.003 186.732 159.061 185.674 159.061 184.369V175.482C159.061 174.447 158.221 173.607 157.186 173.607H137.411C136.38 173.607 135.545 174.443 135.545 175.473Z" fill="#00875F"/>
</svg>
