<svg width="16" height="18" viewBox="0 0 16 18" fill="none" xmlns="http://www.w3.org/2000/svg">
<path d="M12.1667 8.16667H7.16667V9.83333H12.1667V8.16667Z" fill="#3D4350"/>
<path d="M7.16667 11.5H12.1667V13.1667H7.16667V11.5Z" fill="#3D4350"/>
<path fill-rule="evenodd" clip-rule="evenodd" d="M12.1667 4H13.8333C14.7538 4 15.5 4.74619 15.5 5.66667V15.6667C15.5 16.5871 14.7538 17.3333 13.8333 17.3333H5.5C4.57953 17.3333 3.83333 16.5871 3.83333 15.6667V14H2.16667C1.24619 14 0.5 13.2538 0.5 12.3333V2.33333C0.5 1.41286 1.24619 0.666666 2.16667 0.666666H10.5C11.4205 0.666666 12.1667 1.41286 12.1667 2.33333V4ZM10.5 2.33333H2.16667L2.16667 12.3333H3.83333V5.66667C3.83333 4.74619 4.57953 4 5.5 4H10.5V2.33333ZM5.5 5.66667H13.8333V15.6667H5.5V5.66667Z" fill="#3D4350"/>
</svg>
