<svg width="18" height="4" viewBox="0 0 18 4" fill="none" xmlns="http://www.w3.org/2000/svg">
<path fill-rule="evenodd" clip-rule="evenodd" d="M2.33329 0.333328C3.25377 0.333328 3.99996 1.07952 3.99996 2C3.99996 2.92047 3.25377 3.66666 2.33329 3.66666C1.41282 3.66666 0.666626 2.92047 0.666626 2C0.666626 1.07952 1.41282 0.333328 2.33329 0.333328ZM8.99996 0.333328C9.92043 0.333328 10.6666 1.07952 10.6666 2C10.6666 2.92047 9.92043 3.66666 8.99996 3.66666C8.07948 3.66666 7.33329 2.92047 7.33329 2C7.33329 1.07952 8.07948 0.333328 8.99996 0.333328ZM15.6666 0.333328C16.5871 0.333328 17.3333 1.07952 17.3333 2C17.3333 2.92047 16.5871 3.66666 15.6666 3.66666C14.7462 3.66666 14 2.92047 14 2C14 1.07952 14.7462 0.333328 15.6666 0.333328Z" fill="#3D4350"/>
</svg>
