<svg width="18" height="18" viewBox="0 0 18 18" fill="none" xmlns="http://www.w3.org/2000/svg">
<path fill-rule="evenodd" clip-rule="evenodd" d="M9 2.33334C5.3181 2.33334 2.33333 5.31811 2.33333 9.00001C2.33333 12.6819 5.3181 15.6667 9 15.6667C10.0929 15.6667 11.122 15.4043 12.0303 14.94L12.2886 14.8079L15.2087 15.2087L14.8079 12.2886L14.94 12.0303C15.4043 11.122 15.6667 10.0929 15.6667 9.00001C15.6667 5.31811 12.6819 2.33334 9 2.33334ZM0.666664 9.00001C0.666664 4.39763 4.39762 0.666672 9 0.666672C13.6024 0.666672 17.3333 4.39763 17.3333 9.00001C17.3333 10.2573 17.0543 11.4515 16.5543 12.5223L17.1117 15.9647C17.2208 16.6382 16.6382 17.2208 15.9647 17.1117L12.5223 16.5543C11.4515 17.0543 10.2573 17.3333 9 17.3333C4.39762 17.3333 0.666664 13.6024 0.666664 9.00001ZM12.3333 6.50001V8.16667H5.66666V6.50001H12.3333ZM12.3333 11.5V9.83334H5.66666V11.5H12.3333Z" fill="#3D4350"/>
</svg>
