<svg width="21" height="21" viewBox="0 0 21 21" fill="none" xmlns="http://www.w3.org/2000/svg">
<path fill-rule="evenodd" clip-rule="evenodd" d="M15.9773 1.57208C14.799 0.53735 13.0034 0.582339 11.8787 1.70705L0.87868 12.707L0.743204 12.8518C0.265587 13.3971 0 14.099 0 14.8284V17.9999L0.00509269 18.1762C0.0963391 19.751 1.40232 20.9999 3 20.9999H6.17157L6.36971 20.9934C7.09301 20.9456 7.77717 20.637 8.29289 20.1213L19.2929 9.12126L19.4279 8.97727C20.4626 7.79889 20.4176 6.00333 19.2929 4.87862L16.1213 1.70705L15.9773 1.57208ZM2.29289 14.1213L3.499 12.9134L8.085 17.4994L6.87868 18.707L6.7796 18.7939C6.60606 18.9268 6.39259 18.9999 6.17157 18.9999H3L2.88338 18.9932C2.38604 18.9354 2 18.5128 2 17.9999V14.8284L2.00867 14.6969C2.0374 14.4802 2.13661 14.2775 2.29289 14.1213Z" fill="#17171B"/>
</svg>
