<svg width="18" height="18" viewBox="0 0 18 18" fill="none" xmlns="http://www.w3.org/2000/svg">
<path fill-rule="evenodd" clip-rule="evenodd" d="M16.5001 8.16666C16.9603 8.16666 17.3334 8.53975 17.3334 8.99999C17.3334 13.6024 13.6025 17.3333 9.00008 17.3333C6.31815 17.3333 3.87429 16.0545 2.33319 14.0022L2.33341 16.5C2.33341 16.9274 2.01171 17.2796 1.59727 17.3277L1.50008 17.3333C1.07272 17.3333 0.720492 17.0116 0.672354 16.5972L0.666748 16.5V11.5C0.666748 11.0726 0.988448 10.7204 1.4029 10.6723L1.50008 10.6667H6.50008C6.96032 10.6667 7.33342 11.0398 7.33342 11.5C7.33342 11.9274 7.01171 12.2796 6.59727 12.3277L6.50008 12.3333L3.22509 12.3343C4.39649 14.3618 6.57678 15.6667 9.00008 15.6667C12.682 15.6667 15.6667 12.6819 15.6667 8.99999C15.6667 8.53975 16.0398 8.16666 16.5001 8.16666ZM16.5001 0.666656C16.9274 0.666656 17.2797 0.988357 17.3278 1.40281L17.3334 1.49999V6.49999C17.3334 6.92735 17.0117 7.27958 16.5973 7.32772L16.5001 7.33332H11.5001C11.0398 7.33332 10.6667 6.96023 10.6667 6.49999C10.6667 6.07263 10.9884 5.7204 11.4029 5.67226L11.5001 5.66666L14.7758 5.66658C13.6072 3.6433 11.4281 2.33332 9.00008 2.33332C5.31818 2.33332 2.33341 5.31809 2.33341 8.99999C2.33341 9.46023 1.96032 9.83332 1.50008 9.83332C1.03984 9.83332 0.666748 9.46023 0.666748 8.99999C0.666748 4.39762 4.39771 0.666656 9.00008 0.666656C11.6865 0.666656 14.1291 1.94958 15.6677 3.99856L15.6667 1.49999C15.6667 1.07263 15.9884 0.720401 16.4029 0.672263L16.5001 0.666656Z" fill="#3D4350"/>
</svg>
