<svg width="20" height="20" viewBox="0 0 20 20" fill="none" xmlns="http://www.w3.org/2000/svg">
<path fill-rule="evenodd" clip-rule="evenodd" d="M14.1667 8.75002C14.1667 11.7416 11.7416 14.1667 8.75008 14.1667C5.75854 14.1667 3.33341 11.7416 3.33341 8.75002C3.33341 5.75848 5.75854 3.33335 8.75008 3.33335C11.7416 3.33335 14.1667 5.75848 14.1667 8.75002ZM13.1349 14.3134C11.9288 15.2653 10.4058 15.8334 8.75008 15.8334C4.83806 15.8334 1.66675 12.662 1.66675 8.75002C1.66675 4.838 4.83806 1.66669 8.75008 1.66669C12.6621 1.66669 15.8334 4.838 15.8334 8.75002C15.8334 10.4057 15.2653 11.9288 14.3134 13.1349L18.0893 16.9108C18.4148 17.2362 18.4148 17.7638 18.0893 18.0893C17.7639 18.4147 17.2363 18.4147 16.9108 18.0893L13.1349 14.3134Z" fill="#3D4350"/>
</svg>
