<svg width="20" height="19" viewBox="0 0 20 19" fill="none" xmlns="http://www.w3.org/2000/svg">
<path fill-rule="evenodd" clip-rule="evenodd" d="M8.87908 1.63828C9.3376 0.709218 10.6624 0.709218 11.1209 1.63828L13.2474 5.947L18.0024 6.63794C19.0276 6.78692 19.437 8.04688 18.6951 8.77005L15.2544 12.1239L16.0667 16.8597C16.2418 17.8808 15.17 18.6595 14.253 18.1774L10 15.9415L5.74703 18.1774C4.83 18.6595 3.75821 17.8808 3.93335 16.8597L4.74559 12.1239L1.30487 8.77005C0.562973 8.04688 0.97236 6.78692 1.99764 6.63794L6.7526 5.947L8.87908 1.63828ZM10 3.13296L8.15021 6.88105C7.96813 7.24997 7.61618 7.50569 7.20904 7.56485L3.07278 8.16588L6.06581 11.0834C6.36041 11.3705 6.49485 11.7843 6.4253 12.1898L5.71874 16.3093L9.41832 14.3643C9.78248 14.1729 10.2175 14.1729 10.5817 14.3643L14.2813 16.3093L13.5747 12.1898C13.5052 11.7843 13.6396 11.3705 13.9342 11.0834L16.9272 8.16588L12.791 7.56485C12.3838 7.50569 12.0319 7.24997 11.8498 6.88105L10 3.13296Z" fill="#3D4350"/>
</svg>
